<svg xmlns="http://www.w3.org/2000/svg" viewBox="0 0 500 500"><g id="freepik--background-complete--inject-4"><path d="M82,143.89a37.23,37.23,0,0,0-5.33,12.92l-7.22.68v14l7.22.68A37.28,37.28,0,0,0,82,185.07l-4.61,5.56,9.88,9.89,5.57-4.61a37.42,37.42,0,0,0,12.92,5.33l.68,7.22h14l.68-7.22A37.42,37.42,0,0,0,134,195.91l5.57,4.61,9.88-9.89-4.61-5.56a37.28,37.28,0,0,0,5.33-12.93l7.22-.68v-14l-7.22-.68a37.23,37.23,0,0,0-5.33-12.92l4.61-5.57-9.88-9.88L134,133.05a37.25,37.25,0,0,0-12.92-5.34l-.68-7.21h-14l-.68,7.21a37.25,37.25,0,0,0-12.92,5.34l-5.57-4.61-9.88,9.88Zm44.81,7.21a18.92,18.92,0,1,1-26.76,0A18.91,18.91,0,0,1,126.82,151.1Z" style="fill:#e0e0e0"></path><path d="M168.38,76.42a20.28,20.28,0,0,0-2.9,7l-3.93.37v7.61l3.93.37a20.28,20.28,0,0,0,2.9,7l-2.51,3,5.38,5.38,3-2.51a20.45,20.45,0,0,0,7,2.91l.37,3.93h7.61l.38-3.93a20.53,20.53,0,0,0,7-2.91l3,2.51,5.38-5.38-2.51-3a20.28,20.28,0,0,0,2.9-7l3.93-.37V83.83l-3.93-.37a20.28,20.28,0,0,0-2.9-7l2.51-3L199.74,68l-3,2.51a20.34,20.34,0,0,0-7-2.91l-.37-3.93h-7.62l-.37,3.93a20.26,20.26,0,0,0-7,2.91l-3-2.51-5.38,5.38Zm24.41,3.93a10.31,10.31,0,1,1-14.58,0A10.31,10.31,0,0,1,192.79,80.35Z" style="fill:#f0f0f0"></path><path d="M308,220.71a14.51,14.51,0,0,0-2,4.95l-2.76.26v5.35l2.76.26a14.35,14.35,0,0,0,2,4.95l-1.76,2.13,3.78,3.78,2.13-1.76a14.43,14.43,0,0,0,5,2l.26,2.76h5.35l.26-2.76a14.43,14.43,0,0,0,4.95-2l2.13,1.76,3.78-3.78-1.76-2.13a14.35,14.35,0,0,0,2-4.95l2.76-.26v-5.35l-2.76-.26a14.38,14.38,0,0,0-2-4.94l1.76-2.14-3.78-3.78-2.13,1.77a14.26,14.26,0,0,0-4.95-2l-.26-2.76h-5.35l-.26,2.76a14.43,14.43,0,0,0-5,2L310,214.8l-3.78,3.78Zm17.16,2.77a7.24,7.24,0,1,1-10.25,0A7.25,7.25,0,0,1,325.16,223.48Z" style="fill:#e0e0e0"></path><path d="M293.28,265.26a20.24,20.24,0,0,0-2.9,7l-3.93.37v7.62l3.93.37a20.24,20.24,0,0,0,2.9,7l-2.51,3,5.39,5.38,3-2.51a20.28,20.28,0,0,0,7,2.9l.37,3.93h7.61l.37-3.93a20.36,20.36,0,0,0,7-2.9l3,2.51,5.38-5.38-2.51-3a20.24,20.24,0,0,0,2.9-7l3.93-.37v-7.62l-3.93-.37a20.24,20.24,0,0,0-2.9-7l2.51-3-5.38-5.38-3,2.51a20.36,20.36,0,0,0-7-2.9l-.37-3.93H306.6l-.37,3.93a20.28,20.28,0,0,0-7,2.9l-3-2.51-5.39,5.38Zm24.41,3.92a10.31,10.31,0,1,1-14.57,0A10.32,10.32,0,0,1,317.69,269.18Z" style="fill:#e0e0e0"></path><path d="M349.84,250.33a28.55,28.55,0,0,0-4.1,9.94l-5.56.52v10.75l5.56.53a28.71,28.71,0,0,0,4.1,9.94l-3.55,4.28,7.61,7.6,4.28-3.54a28.55,28.55,0,0,0,9.94,4.1l.52,5.55h10.75l.53-5.55a28.71,28.71,0,0,0,9.94-4.1l4.28,3.54,7.6-7.6L398.2,282a28.71,28.71,0,0,0,4.1-9.94l5.55-.53V260.79l-5.55-.52a28.55,28.55,0,0,0-4.1-9.94l3.54-4.29-7.6-7.6L389.86,242a28.92,28.92,0,0,0-9.94-4.11l-.53-5.55H368.64l-.52,5.56a28.55,28.55,0,0,0-9.94,4.1l-4.28-3.55-7.61,7.6Zm34.47,5.55a14.55,14.55,0,1,1-20.58,0A14.56,14.56,0,0,1,384.31,255.88Z" style="fill:#f0f0f0"></path><path d="M295.66,86.06a23.88,23.88,0,0,0-3.4,8.24l-4.6.43v8.91l4.6.44a23.88,23.88,0,0,0,3.4,8.24l-2.94,3.55,6.3,6.3,3.55-2.94a24,24,0,0,0,8.24,3.4l.44,4.6h8.91l.43-4.6a23.88,23.88,0,0,0,8.24-3.4l3.55,2.94,6.3-6.3-2.93-3.55a23.88,23.88,0,0,0,3.4-8.24l4.6-.44V94.73l-4.6-.43a23.71,23.71,0,0,0-3.41-8.24l2.94-3.55-6.3-6.3-3.55,2.94a23.69,23.69,0,0,0-8.24-3.4l-.43-4.61h-8.91l-.44,4.61a23.77,23.77,0,0,0-8.24,3.4L299,76.21l-6.3,6.3Zm28.57,4.6a12.06,12.06,0,1,1-17.06,0A12.07,12.07,0,0,1,324.23,90.66Z" style="fill:#f0f0f0"></path><path d="M68.05,278.23A22.51,22.51,0,0,0,64.84,286l-4.34.41v8.42l4.34.4A22.56,22.56,0,0,0,68.05,303l-2.77,3.35,6,5.95,3.35-2.77a22.56,22.56,0,0,0,7.78,3.21l.4,4.34h8.42l.41-4.34a22.51,22.51,0,0,0,7.77-3.21l3.35,2.77,6-5.95L105.89,303a22.56,22.56,0,0,0,3.21-7.78l4.34-.4v-8.42L109.1,286a22.51,22.51,0,0,0-3.21-7.77l2.77-3.35-6-5.95-3.35,2.77a22.51,22.51,0,0,0-7.77-3.21l-.41-4.34H82.76l-.4,4.34a22.56,22.56,0,0,0-7.78,3.21l-3.35-2.77-6,5.95Zm27,4.34a11.38,11.38,0,1,1-16.1,0A11.38,11.38,0,0,1,95,282.57Z" style="fill:#f0f0f0"></path><path d="M443.92,330.2H263.17a5.87,5.87,0,0,1-5.86-5.86V61.06a5.87,5.87,0,0,1,5.86-5.86H443.92a5.87,5.87,0,0,1,5.86,5.86V324.34A5.87,5.87,0,0,1,443.92,330.2ZM263.17,55.45a5.62,5.62,0,0,0-5.61,5.61V324.34a5.62,5.62,0,0,0,5.61,5.61H443.92a5.61,5.61,0,0,0,5.61-5.61V61.06a5.61,5.61,0,0,0-5.61-5.61Z" style="fill:#e0e0e0"></path><path d="M235.49,330.2H54.75a5.87,5.87,0,0,1-5.87-5.86V61.06a5.87,5.87,0,0,1,5.87-5.86H235.49a5.86,5.86,0,0,1,5.86,5.86V324.34A5.86,5.86,0,0,1,235.49,330.2ZM54.75,55.45a5.62,5.62,0,0,0-5.62,5.61V324.34A5.62,5.62,0,0,0,54.75,330H235.49a5.61,5.61,0,0,0,5.61-5.61V61.06a5.61,5.61,0,0,0-5.61-5.61Z" style="fill:#e0e0e0"></path><rect y="391.27" width="500" height="0.25" style="fill:#e0e0e0"></rect><rect x="51.67" y="405.53" width="16.06" height="0.25" style="fill:#e0e0e0"></rect><rect x="170.35" y="402.82" width="53.53" height="0.25" style="fill:#e0e0e0"></rect><rect x="68.73" y="414.82" width="36.25" height="0.25" style="fill:#e0e0e0"></rect><rect x="378.35" y="402.69" width="43.19" height="0.25" style="fill:#e0e0e0"></rect><rect x="430.45" y="402.69" width="6.33" height="0.25" style="fill:#e0e0e0"></rect><rect x="316.21" y="408.92" width="53.89" height="0.25" style="fill:#e0e0e0"></rect></g><g id="freepik--Shadow--inject-4"><path d="M458.88,444.73c0,3.39-93.52,6.14-208.88,6.14s-208.88-2.75-208.88-6.14S134.64,438.6,250,438.6,458.88,441.35,458.88,444.73Z" style="fill:#f5f5f5"></path></g><g id="freepik--light-bulb--inject-4"><g id="freepik--freepik--light-bulb--inject-2--inject-4"><path d="M260.55,232.51c0,2.54-3.53,4.57-7.82,4.51s-7.74-2.15-7.71-4.69,3.53-4.57,7.81-4.5S260.58,230,260.55,232.51Z" style="fill:#263238"></path><path d="M263.91,224.14a2.33,2.33,0,0,0,.71-1.53c0-2.49-5.24-4.57-11.77-4.64S241,219.86,241,222.34a2.27,2.27,0,0,0,.67,1.53,1.83,1.83,0,0,0-.2.76,2.22,2.22,0,0,0,.69,1.53,1.71,1.71,0,0,0-.22.8,2.14,2.14,0,0,0,.72,1.53,1.61,1.61,0,0,0-.25.82,2.08,2.08,0,0,0,.77,1.48,1.65,1.65,0,0,0-.26.83c0,2.07,4.35,3.82,9.78,3.86s9.85-1.52,9.87-3.63a1.56,1.56,0,0,0-.25-.84,2.06,2.06,0,0,0,.77-1.47,1.79,1.79,0,0,0-.22-.82,2.19,2.19,0,0,0,.76-1.48,1.67,1.67,0,0,0-.21-.82,2.2,2.2,0,0,0,.77-1.48A2,2,0,0,0,263.91,224.14Z" style="fill:#263238"></path><path d="M273.7,202.17A20.92,20.92,0,1,0,239.34,218a3.45,3.45,0,0,1,1.23,3v.17c0,2.52,5.34,4.63,12,4.71s12-1.91,12-4.44v-.16a3.47,3.47,0,0,1,1.31-3A20.86,20.86,0,0,0,273.7,202.17Z" style="fill:#4E73DF"></path><path d="M236.84,210.13a.26.26,0,0,1-.21-.12,16.33,16.33,0,0,1,3-20.17.25.25,0,0,1,.35.37,15.82,15.82,0,0,0-2.89,19.54.26.26,0,0,1-.09.35A.28.28,0,0,1,236.84,210.13Z" style="fill:#fff"></path><path d="M243.12,230.84a26.06,26.06,0,0,0,19.11.23,23.32,23.32,0,0,1-19.11-.23Z" style="fill:#263238"></path><path d="M243,228.6a26.11,26.11,0,0,0,19.11.23A23.4,23.4,0,0,1,243,228.6Z" style="fill:#263238"></path><path d="M242.84,226.35a26.06,26.06,0,0,0,19.11.23,23.32,23.32,0,0,1-19.11-.23Z" style="fill:#263238"></path><path d="M248.26,221.64h-.07a.25.25,0,0,1-.17-.31,36,36,0,0,0,1.42-8.88L249,212c-2.33-2.42-3.41-5.41-2.91-8,.18-1,.75-1.89,1.59-1.89h0c1.06,0,1.48,1.4,1.64,2.22a37.13,37.13,0,0,1,.64,7.94,4.79,4.79,0,0,0,2.88,1.39,4.65,4.65,0,0,0,3.29-1.51c-.52-2.26-.92-4.56-1.22-6.88a7.22,7.22,0,0,1,0-2.41,2.24,2.24,0,0,1,1.53-1.79c1.26-.27,2.25,1.07,2.6,2.54a9.74,9.74,0,0,1-2.27,8.6l-.08.09a69.09,69.09,0,0,0,2.74,9,.25.25,0,1,1-.47.18,70.9,70.9,0,0,1-2.69-8.79,4.8,4.8,0,0,1-3.45,1.45,5,5,0,0,1-2.87-1.26,36.22,36.22,0,0,1-1.43,8.6A.25.25,0,0,1,248.26,221.64Zm-.62-19.07c-.56,0-1,.77-1.1,1.49-.47,2.43.57,5.26,2.78,7.56l.14.14a35.82,35.82,0,0,0-.64-7.37c-.08-.42-.41-1.8-1.16-1.82Zm9.09-1.08-.2,0a1.78,1.78,0,0,0-1.15,1.42,6.44,6.44,0,0,0,0,2.23q.42,3.29,1.13,6.5a9.37,9.37,0,0,0,2-8C258.27,202.57,257.56,201.49,256.73,201.49Z" style="fill:#263238"></path></g><path d="M238.21,175.32s2.65,1.19,4,0-1.32-8.78-1.32-8.78,3.12,6.93,8,5.93,5.57-11.92,5.57-11.92.7,10.75,3.66,12.9,6.28,0,6.28,0c-2.51,3.31,0,7.19,0,7.19-7.29-6.53-20.48-3.76-24,.37Zm-9.91,13.25s1.24,3.1,0,4.1-7-2.11-7-2.11,5.24,4.58,3.76,6.94-8.31,1.74-8.31,1.74,8.66,3,8.93,5.08-1.61,4.1-1.61,4.1a7.65,7.65,0,0,1,6.74.74c-4.79-8.32,0-17.62,0-17.62Zm51.77,22.85s-2.92-3.18-1.55-4.83,7.93,0,7.93,0-7.19-4.31-6.94-7.25,5.82-4.07,5.82-4.07-7.05.93-7.81-.42.49-3.47.49-3.47l-3.32,2c3.85,10.19-1,16.91-1,16.91C276.8,209.08,280.07,211.42,280.07,211.42Z" style="fill:#e0e0e0"></path></g><g id="freepik--speech-bubble--inject-4"><path d="M354.49,152.8c.63.12,9.4,10.43,9.4,10.43l7.53-10.91Z" style="fill:#4E73DF"></path><path d="M354.49,152.8c.63.12,9.4,10.43,9.4,10.43l7.53-10.91Z" style="fill:#fff;opacity:0.5"></path><rect x="316.83" y="95.04" width="97.52" height="57.88" rx="4.09" style="fill:#4E73DF"></rect><rect x="316.83" y="95.04" width="97.52" height="57.88" rx="4.09" style="fill:#fff;opacity:0.5"></rect><path d="M331.66,127.37l-.33-.37c.41-.37,11.71-11.53,11.83-11.64l.12-.13,11.25,5.54,11.09-13,.18.27,11.12,16,10.78-7,.27.42-11.18,7.29-11.22-16.15-10.91,12.85-11.28-5.55C342.07,117.14,332.07,127,331.66,127.37Z" style="fill:#263238"></path><rect x="329.74" y="132.26" width="5.28" height="11.69" style="fill:#4E73DF"></rect><rect x="340.61" y="124.53" width="5.28" height="19.42" style="fill:#4E73DF"></rect><rect x="351.68" y="126.49" width="5.28" height="17.47" style="fill:#4E73DF"></rect><rect x="362.96" y="115.54" width="5.28" height="28.42" style="fill:#4E73DF"></rect><rect x="374.35" y="130.61" width="5.28" height="13.35" style="fill:#4E73DF"></rect><path d="M335.22,125.86a2.84,2.84,0,1,1-2.84-2.83A2.84,2.84,0,0,1,335.22,125.86Z" style="fill:#4E73DF"></path><path d="M346.09,115.54a2.84,2.84,0,1,1-2.84-2.84A2.84,2.84,0,0,1,346.09,115.54Z" style="fill:#4E73DF"></path><path d="M357.43,120.19a2.84,2.84,0,1,1-2.84-2.83A2.84,2.84,0,0,1,357.43,120.19Z" style="fill:#4E73DF"></path><path d="M368.43,108.13a2.84,2.84,0,1,1-2.83-2.84A2.84,2.84,0,0,1,368.43,108.13Z" style="fill:#4E73DF"></path><path d="M379.69,124.35a2.84,2.84,0,1,1-2.84-2.83A2.84,2.84,0,0,1,379.69,124.35Z" style="fill:#4E73DF"></path><rect x="385.63" y="123.91" width="5.28" height="20.04" style="fill:#4E73DF"></rect><rect x="340.61" y="124.53" width="5.28" height="19.42" style="opacity:0.30000000000000004"></rect><rect x="362.96" y="115.54" width="5.28" height="28.42" style="opacity:0.30000000000000004"></rect><rect x="385.63" y="123.91" width="5.28" height="20.04" style="opacity:0.30000000000000004"></rect><rect x="397.31" y="130.61" width="5.28" height="13.35" style="fill:#4E73DF"></rect><polygon points="399.82 124.13 387.71 117.41 387.95 116.97 400.06 123.69 399.82 124.13" style="fill:#263238"></polygon><path d="M391.3,117.19a2.84,2.84,0,1,1-2.84-2.84A2.84,2.84,0,0,1,391.3,117.19Z" style="fill:#4E73DF"></path><path d="M402.78,123.91a2.84,2.84,0,1,1-2.84-2.83A2.84,2.84,0,0,1,402.78,123.91Z" style="fill:#4E73DF"></path></g><g id="freepik--character-1--inject-4"><path d="M333.21,384.62V338.09a2.53,2.53,0,0,1,4.1-2l29.58,23.26a2.54,2.54,0,0,1,0,4l-29.58,23.26A2.53,2.53,0,0,1,333.21,384.62Z" style="fill:#4E73DF"></path><rect x="198.49" y="347.52" width="139.51" height="27.66" style="fill:#4E73DF"></rect><path d="M222.94,375.23H92.1L107,361.14,92.1,346.88H222.94a101.87,101.87,0,1,0,0-203.73V114.79a130.22,130.22,0,1,1,0,260.44Z" style="fill:#4E73DF"></path><g style="opacity:0.4"><path d="M222.94,375.23H92.1L107,361.14,92.1,346.88H222.94a101.87,101.87,0,1,0,0-203.73V114.79a130.22,130.22,0,1,1,0,260.44Z" style="fill:#fff"></path></g><path d="M125.87,336a132.58,132.58,0,0,1,64.65-216.93l-9.77,12.27L197.87,147a103.72,103.72,0,0,0-50.56,169.7Z" style="fill:#4E73DF"></path><path d="M128.72,337.66c1.07-.27,36.4,0,36.4,0l-17.81-21L125.87,336Z" style="fill:#4E73DF"></path><path d="M223.5,104.46l2.62,46.45a2.54,2.54,0,0,1-4,2.23l-30.84-21.57a2.53,2.53,0,0,1-.22-4l28.21-24.89A2.54,2.54,0,0,1,223.5,104.46Z" style="fill:#4E73DF"></path><path d="M223.5,104.46l2.62,46.45a2.54,2.54,0,0,1-4,2.23l-30.84-21.57a2.53,2.53,0,0,1-.22-4l28.21-24.89A2.54,2.54,0,0,1,223.5,104.46Z" style="fill:#fff;opacity:0.4"></path><path d="M208.94,203.63a14.83,14.83,0,0,1,6.93,12.65c-.67,5.11-2.45,8.73-3.83,13.7l-13.55-29.91C201.66,200.69,203.08,200.05,208.94,203.63Z" style="fill:#263238"></path><path d="M202.14,201c-5.31-2.47-10.52.45-13.55,2.47a15.25,15.25,0,0,0-5.39,11.29c0,4.07,0,9,2.47,11.13a6.6,6.6,0,0,0,5.06,1.63l20.15-18.59A23.55,23.55,0,0,0,202.14,201Z" style="fill:#263238"></path><path d="M202.49,256.07c-1.55,1.6-3,1.06-5,.22-12.3-4.43-8.66-10.37-8.66-10.37,2.34-2.74,2.44-6,1.59-11a2.07,2.07,0,0,1,0-.43,3.26,3.26,0,0,1,.61-1.86,3.31,3.31,0,0,1,4.59-.86h0l5.51,1.58h0c0,.07,0,.15.05.23,0,2.74-.07,4.86-.05,6.52a4.19,4.19,0,0,1,0,.61h0a3.22,3.22,0,0,1,0,.62c.13,2.28,4,5.64,5.57,6.43C207.64,248.3,207.74,250.68,202.49,256.07Z" style="fill:#b97964"></path><path d="M201.06,233.32h0a.93.93,0,0,0,.05.24c0,2.74-.06,4.86,0,6.52a4.12,4.12,0,0,0,0,.61h0c0,.21,0,.43.08.64h0a21.27,21.27,0,0,1-10.7-6.86h0a3.38,3.38,0,0,1,.56-1.85,3.31,3.31,0,0,1,4.58-.91Z" style="isolation:isolate;opacity:0.2"></path><path d="M186.22,215.94c.21,9.42.09,13.39,4.57,18.51,6.74,7.68,18,5.63,20.62-3.61,2.27-8.32,1.59-22.3-7.29-26.63S186,206.51,186.22,215.94Z" style="fill:#b97964"></path><path d="M182.05,224a7.63,7.63,0,0,0,4.29,4c2.45.84,4.08-3.08,3.44-5.66a5.06,5.06,0,0,0-5.39-3.74C182,218.86,181,221.68,182.05,224Z" style="fill:#b97964"></path><path d="M187.38,224.2h0a.26.26,0,0,1-.25-.26,3.19,3.19,0,0,0-3.13-3.25.25.25,0,0,1-.25-.25.26.26,0,0,1,.25-.25h0a3.69,3.69,0,0,1,3.62,3.76A.25.25,0,0,1,187.38,224.2Z" style="opacity:0.2"></path><path d="M198.49,220c0,1,.44,1.87,1.06,1.94s1.15-.7,1.19-1.7-.44-1.87-1.06-1.94S198.53,219,198.49,220Z" style="fill:#263238"></path><path d="M207.82,220.75c0,1,.44,1.82,1.05,1.88S210,222,210.06,221s-.44-1.82-1.06-1.88S207.85,219.78,207.82,220.75Z" style="fill:#263238"></path><path d="M196.81,216.34a.44.44,0,0,0,.35-.08,3.42,3.42,0,0,1,3.19-.6.43.43,0,0,0,.57-.27.51.51,0,0,0-.3-.61,4.24,4.24,0,0,0-4,.71.48.48,0,0,0-.06.66A.5.5,0,0,0,196.81,216.34Z" style="fill:#263238"></path><path d="M211.35,216.27a.34.34,0,0,0,.24-.18.51.51,0,0,0-.19-.63,3.92,3.92,0,0,0-3.8-.58.44.44,0,0,0-.16.59.46.46,0,0,0,.57.25,3.1,3.1,0,0,1,3,.49A.38.38,0,0,0,211.35,216.27Z" style="fill:#263238"></path><path d="M205.32,220.08a32.37,32.37,0,0,0,2.66,6,.73.73,0,0,1-.43,1.08A4.62,4.62,0,0,1,205,227Z" style="fill:#a24e3f"></path><path d="M199.32,218.3l2.22-.33S200.21,219.49,199.32,218.3Z" style="fill:#263238"></path><path d="M208.78,219.11l2.21-.33S209.67,220.3,208.78,219.11Z" style="fill:#263238"></path><path d="M204.39,229.59a22,22,0,0,0-1.83,2.64c-.18-.06-.35-.13-.53-.21-2.38-1-3.17-2.18-3.32-3.26a3.36,3.36,0,0,1,.19-1.56,3.25,3.25,0,0,1,.4-.8,12.11,12.11,0,0,0,4.29,2.85C204.07,229.47,204.39,229.59,204.39,229.59Z" style="fill:#263238"></path><path d="M203.59,229.25,203,230c-2.25-.9-3.7-1.84-4.13-2.81a3.25,3.25,0,0,1,.4-.8A12.11,12.11,0,0,0,203.59,229.25Z" style="fill:#fff"></path><path d="M202,232c-2.38-1-3.17-2.18-3.32-3.26a8.27,8.27,0,0,1,2.43,1.59A3.06,3.06,0,0,1,202,232Z" style="fill:#de5753"></path><path d="M189.48,218.23s5.38-6.15,5.55-11.4c0,0,19.25-4.28,17.48,12.34,0,0,4.16-14.37-11.57-16.72s-19,18.2-11.85,25.36C189.12,227.74,186.15,222.09,189.48,218.23Z" style="fill:#263238"></path><path d="M172.7,205.72a7.79,7.79,0,1,0,7.76-8.46A8.16,8.16,0,0,0,172.7,205.72Z" style="fill:#263238"></path><path d="M208.09,204.51a13.47,13.47,0,0,1,3.95,7.41c0,2.05-2.79,3.53-2.79,3.53L205.84,211v3.93a12.42,12.42,0,0,1-10.71-7.85l3.11-5.56S206.24,202.91,208.09,204.51Z" style="fill:#263238"></path><path d="M181.5,210.21a9.54,9.54,0,0,1-3.63,5.6,4.71,4.71,0,0,0,2.84-.68,7,7,0,0,1-.53,2.34,9.93,9.93,0,0,0,3.52-7.76Z" style="fill:#263238"></path><path d="M291.72,413l-9.34.27s-16.67-32.09-24.67-50.08c-9.45-21.26-7.37-28.11-10.21-28.23-5.24-.23-58.67,24.34-72.05,10.71s6-46.46,6-46.46,29.82-4.61,32.25,2.67c.6,2.15,1.9,4.37,2.21,6.58s1.09,5.41,1.09,5.41h0c.7-.18,21.14-2.16,33.83-1.87a19.58,19.58,0,0,1,17.49,11.83C279.77,350.23,291.72,413,291.72,413Z" style="fill:#263238"></path><path d="M197.66,348.91s2.18,0,36-1.53c0,0-4.64,11-5.93,33.55-.53,9.28,1,39.38-.21,52.69.58.83,6.8,3.58,10.59.8,0,0,21.94-79.18,21.72-89.92s-12.67-13.91-12.67-13.91S223.16,344.5,197.66,348.91Z" style="fill:#263238"></path><path d="M229.12,340.05q6.94-2.81,13.63-6.17c7.73-3.9,17.23,1.11,18,9.74,0,.29,0,.58.05.88.1,4.36-3.79,20.73-9.37,38.52.15-1.06.35-2.1.6-3.13,5.54-22.22,8.31-33.77,5.54-39.14a16.68,16.68,0,0,0-8.38-7.36l-30.22,14.73c-16.65.73-19.13.76-19.43.76A149.29,149.29,0,0,0,229.12,340.05Z" style="isolation:isolate;opacity:0.2"></path><path d="M239.69,429.93a.84.84,0,0,0-.86-.88H236c-.72,0-1.5,1.27-1.94,1.83-1.89,2.46-3.24,1.48-5.17-.92-1.26-.17-1.64,1.27-1.75,1.66l-2.58,8.57a1.36,1.36,0,0,0,.89,1.7,1.32,1.32,0,0,0,.39.06l10.47.25,14.67.36c4,.09,4.92-3.92,3.28-4.33-7.36-1.81-12.55-4.12-14.79-6.33C239.15,431.61,239.62,430.81,239.69,429.93Z" style="fill:#4E73DF"></path><path d="M238.22,434.74a.24.24,0,0,1-.14-.05.24.24,0,0,1-.07-.34,4,4,0,0,1,2.92-1.78.25.25,0,0,1,0,.49,3.58,3.58,0,0,0-2.55,1.56A.25.25,0,0,1,238.22,434.74Z" style="fill:#fff"></path><path d="M240.28,436a.24.24,0,0,1-.14,0,.24.24,0,0,1-.07-.34,4,4,0,0,1,2.92-1.78.25.25,0,0,1,0,.49,3.58,3.58,0,0,0-2.55,1.56A.25.25,0,0,1,240.28,436Z" style="fill:#fff"></path><path d="M242.82,437.32a.25.25,0,0,1-.14,0,.26.26,0,0,1-.07-.35,4.12,4.12,0,0,1,2.92-1.78.25.25,0,0,1,.28.23.25.25,0,0,1-.22.27,3.6,3.6,0,0,0-2.56,1.56A.26.26,0,0,1,242.82,437.32Z" style="fill:#fff"></path><path d="M291.26,406.7l-3,1.07a2.25,2.25,0,0,0-1.38,1.5c-.88,3-2.49,2.55-5.16,1-1.24.29-1.07,1.77-1,2.17l.69,8.92a1.36,1.36,0,0,0,1.45,1.27,1.24,1.24,0,0,0,.38-.09l9.86-3.55,13.8-5c3.76-1.36,3.17-5.43,1.5-5.22-7.53,1-13.2.7-16.08-.56C291.78,408.05,292.09,407.64,291.26,406.7Z" style="fill:#4E73DF"></path><path d="M292.22,411.45h-.05a.27.27,0,0,1-.2-.3,4.1,4.1,0,0,1,2.08-2.72.25.25,0,0,1,.23.45,3.53,3.53,0,0,0-1.82,2.37A.25.25,0,0,1,292.22,411.45Z" style="fill:#fff"></path><path d="M294.58,411.78h-.06a.25.25,0,0,1-.19-.29,4.1,4.1,0,0,1,2.08-2.72.25.25,0,0,1,.34.11.25.25,0,0,1-.11.33,3.57,3.57,0,0,0-1.82,2.38A.25.25,0,0,1,294.58,411.78Z" style="fill:#fff"></path><path d="M297.31,412.12h-.05a.25.25,0,0,1-.19-.3,4.08,4.08,0,0,1,2.07-2.72.25.25,0,1,1,.23.45,3.64,3.64,0,0,0-1.82,2.37A.25.25,0,0,1,297.31,412.12Z" style="fill:#fff"></path><path d="M222.33,313.27l-4.29.41s-.36-2.95-.72-5.13-2.74-9.64-3.33-11.79c-12.28,1.22-33.12.49-33.12.49s-18.8,34.77-5.43,48.36c8,8.15,31.68,3.38,49.19-3.78Z" style="fill:#263238"></path><path d="M218,312.5l-18.83,3.93s10.3-5.59,18.11-7.86C217.68,310.8,218,312.5,218,312.5Z" style="isolation:isolate;opacity:0.30000000000000004"></path><path d="M245.65,268.24c.11-1.66-4.8,7.83-4.8,7.83l-8.29-5.85,6.6-6.64s6.7,4.38,6.59,4.52" style="fill:#b97964"></path><path d="M212.4,246.77a18.46,18.46,0,0,1,9.37,10.73,110,110,0,0,1,4,18.51l10.46-9.32,7.8,5.79S233.82,288,226.93,294.05c-5.73,5-12.21-4.72-12.21-4.72l-2.82-42.8Z" style="fill:#4E73DF"></path><polygon points="192.16 302.34 189.91 337.63 169.73 335.22 169.73 331.6 192.16 302.34" style="opacity:0.2"></polygon><path d="M182.4,303.22c-.79-9-4-25.36-9.44-42.59-1.78-5.6,4.58-11.79,4.58-11.79s4.11-.33,4.86-.41,1.67-.18,2.52-.25a120,120,0,0,1,17.33-.59c1.44.08,2.91.2,4.35.32.47.05,3.49.1,4,.14,0,0,8.2,9.6,8.64,16.37.24,3.78,2.07,5.41,1.86,14.46,0,6.14-4.49,15.09-4.9,23.73Z" style="fill:#fff"></path><path d="M193.58,273.14c-.43-14.05-2.09-23-2.85-26.38a1.77,1.77,0,0,0-1.95-1.38l-5.43,1.15c-5.32,1.41-8.17.65-11.13,4.6-.57.76-1.05,6.65-1,7.45a99.74,99.74,0,0,0,2.42,11.23c.92,3.72,2,7.88,3.05,11.81,1.33,5,2.44,6.31,2.87,7.92l-13.76,40.61a1.77,1.77,0,0,0,1.49,2.36L187,334.58a1.78,1.78,0,0,0,2-1.55C190,324.78,194.07,289.29,193.58,273.14Z" style="fill:#4E73DF"></path><path d="M219.54,300.66s4.15-25.69,3-32.12-10.68-22-10.68-22l-4.38-.31-5.17-2.09s12,14.41,14.88,24.81c1.93,6.85-1.92,28.47-1.47,33.68l2.22,10.8,5.5-.25Z" style="fill:#4E73DF"></path><path d="M190,243.17s5.38,10.61,3.35,37.3l-8.93-19.19,3.23-5.24-4.29-8.57s4.59-2.95,6.52-4.51Z" style="fill:#4E73DF"></path><g style="opacity:0.2"><path d="M190,243.17s5.38,10.61,3.35,37.3l-8.93-19.19,3.23-5.24-4.29-8.57s4.59-2.95,6.52-4.51Z"></path></g><path d="M217.51,280.62a33.8,33.8,0,0,0,1.63-11.32c-.36-5.43-.45-9.48-.45-9.48l-6.16-4.56.81-5.55s-3-1.82-5.73-3.69c-1.89-1.28-5.59-3.21-6.08-3.06,0,0,15.74,19.91,15.82,28.06C217.43,278.88,217.51,280.62,217.51,280.62Z" style="fill:#4E73DF"></path><path d="M217.51,280.62a33.8,33.8,0,0,0,1.63-11.32c-.36-5.43-.45-9.48-.45-9.48l-6.16-4.56.81-5.55s-3-1.82-5.73-3.69c-1.89-1.28-5.59-3.21-6.08-3.06,0,0,15.74,19.91,15.82,28.06C217.43,278.88,217.51,280.62,217.51,280.62Z" style="opacity:0.30000000000000004"></path><path d="M220.54,294.28l2.14-19.81.8,20.45A8.41,8.41,0,0,1,220.54,294.28Z" style="opacity:0.30000000000000004"></path><path d="M205.51,248.27l-4.24-5.82-2,3.46-8.36-5-1,2.08,3,8.7s7.42,3,7.81,3S205.51,248.27,205.51,248.27Z" style="fill:#fff"></path><polygon points="205.7 248.54 203.97 252.82 199.66 248.54 196.73 253.57 192.36 251.43 197.02 255.12 199.72 249.61 204.66 254.26 205.7 248.54" style="opacity:0.30000000000000004"></polygon><polygon points="182.64 288.99 180.95 270.07 179.65 290.68 199.21 298.63 182.64 288.99" style="opacity:0.30000000000000004"></polygon><path d="M174.9,248.54a10.53,10.53,0,0,0-7.41,8.31c-1.19,6.78-2.77,40.69-1.42,42.83S205.21,314,205.21,314l4-10.49-28.54-13.81s.23-9.69.46-17.24c.12-4,.25-7.38.34-8.43C181.76,261,174.9,248.54,174.9,248.54Z" style="fill:#4E73DF"></path><path d="M209.11,304.14S221,307,223.74,309.37a3.86,3.86,0,0,1,1.19,2.77L205.7,313Z" style="fill:#b97964"></path><path d="M174.79,303.6l16.72,6v2.05L174,306.06Z" style="opacity:0.30000000000000004"></path><path d="M208.62,302.71a.26.26,0,0,1-.25-.24c-.05-1.72-.09-3.46-.13-5.22-.35-15.75-.76-33.6-8.74-47.52a.25.25,0,0,1,.1-.34.25.25,0,0,1,.34.09c8,14,8.45,32,8.8,47.75,0,1.77.08,3.51.13,5.22a.24.24,0,0,1-.24.26Z" style="opacity:0.2"></path><path d="M239.6,264.56a7.5,7.5,0,0,1-1-5c.59-2.44.41-4.54,1-6.32s1.56.53,1.84,1.87S242,258,243,257.58s6.62-7.32,8-7.69.85,1,.85,1,1.41-1.65,2.22-1.26c.21.09.54.67,0,1.52-1.19,1.92-3.89,5.82-3.89,5.82.15-.22,3.83-4.8,4.47-5.42.84-.8,1.64-.75,2.09-.25.64.71-3.73,6.54-3.74,6.92,0,0,2.4-3.44,3.63-3.31s-.17,2.38-1.77,4.13-3.94,5.14-5.59,6.63c-2,1.83-3.82,2.6-6.17,1.57A8.65,8.65,0,0,1,239.6,264.56Z" style="fill:#b97964"></path><path d="M248.49,255.57a.24.24,0,0,1-.14,0,.25.25,0,0,1-.07-.34c1-1.46,2-2.88,3.14-4.22a.24.24,0,0,1,.35,0,.25.25,0,0,1,0,.35c-1.08,1.33-2.13,2.74-3.1,4.19A.26.26,0,0,1,248.49,255.57Z" style="opacity:0.30000000000000004"></path><path d="M252.12,259.88a.26.26,0,0,1-.21-.11,11.43,11.43,0,0,0-5.16-4,.26.26,0,0,1-.15-.33.25.25,0,0,1,.32-.14,11.91,11.91,0,0,1,5.4,4.15.25.25,0,0,1-.06.35A.24.24,0,0,1,252.12,259.88Z" style="opacity:0.30000000000000004"></path><path d="M243.48,264a.24.24,0,0,1-.15-.06.25.25,0,0,1-.05-.35,3.74,3.74,0,0,0,.75-2.41,3.8,3.8,0,0,0-1-2.34.24.24,0,0,1,0-.35.25.25,0,0,1,.36,0,4.25,4.25,0,0,1,.24,5.4A.26.26,0,0,1,243.48,264Z" style="opacity:0.30000000000000004"></path><path d="M257.2,312.47H226.39a.88.88,0,0,1-1-.78.69.69,0,0,1,0-.24L239.19,280a2.68,2.68,0,0,1,2.55-1.52h30.83a.87.87,0,0,1,.95.76.62.62,0,0,1-.06.26L259.75,311A2.69,2.69,0,0,1,257.2,312.47Z" style="fill:#263238"></path><path d="M272.57,278.51H241.74a2.68,2.68,0,0,0-2.55,1.52l-13.71,31.42a.69.69,0,0,0,0,.24.88.88,0,0,0,1,.78H257.2a2.69,2.69,0,0,0,2.55-1.52l13.71-31.42a.62.62,0,0,0,.06-.26A.87.87,0,0,0,272.57,278.51Z" style="fill:#fff;opacity:0.7000000000000001"></path><path d="M253.48,296.19c-.67,1.51-2,2.54-3,2.33s-1.27-1.58-.62-3.09,2-2.53,3-2.32S254.15,294.64,253.48,296.19Z" style="fill:#fff"></path><path d="M241.92,278.51h-.18a2.68,2.68,0,0,0-2.55,1.52l-13.71,31.42a.69.69,0,0,0,0,.24.88.88,0,0,0,1,.78h1Z" style="opacity:0.30000000000000004"></path><polygon points="201.39 312.75 201.39 315.29 225.94 312.79 226.31 309.56 201.39 312.75" style="fill:#263238"></polygon><polygon points="201.39 312.75 201.39 315.29 225.94 312.79 226.31 309.56 201.39 312.75" style="fill:#fff;opacity:0.7000000000000001"></polygon><path d="M340.26,204.17a4.58,4.58,0,0,0-2.33,3.9c0,2.7,3.4,7.32,3.22,8.85S340.8,223,342.4,225s9.74,3.62,9.73,3.57-.9-5.69-2-11.68-9.85-12.75-9.85-12.75" style="opacity:0.2"></path></g><g id="freepik--Plant--inject-4"><path d="M100.6,304.14C86.23,321,82,345.84,90.1,366.44c9-8,15.26-20.19,15.66-30.84S103.37,314.45,100.6,304.14Z" style="fill:#4E73DF"></path><path d="M98.1,368.38a41.29,41.29,0,0,0-6.54,25.47c7.77-2.71,14.62-11.48,18.73-18.61s6.4-15.14,8.49-23.1A41.28,41.28,0,0,0,98.1,368.38Z" style="fill:#4E73DF"></path><path d="M96.23,333.48a237.71,237.71,0,0,0-8.7,63.87q0,9.18.73,18.33c0,.47.79.48.75,0a237.34,237.34,0,0,1,3.75-64.39q1.76-8.88,4.19-17.61a.37.37,0,0,0-.72-.2Z" style="fill:#263238"></path><path d="M88.58,400.9a196.32,196.32,0,0,1,22.61-39.47c.28-.39-.37-.77-.65-.38A197.52,197.52,0,0,0,87.85,400.7c-.18.44.54.64.73.2Z" style="fill:#263238"></path><path d="M80.14,380a34.42,34.42,0,0,1,5.44,21.24C79.11,399,73.39,391.69,70,385.74s-5.34-12.62-7.08-19.25A34.42,34.42,0,0,1,80.14,380Z" style="fill:#4E73DF"></path><path d="M88.4,406.15a160.54,160.54,0,0,0-18.58-32.27c-.29-.39-.94,0-.65.38a159.86,159.86,0,0,1,18.51,32.09c.18.44.91.25.72-.2Z" style="fill:#263238"></path><path d="M88.61,410.06c9.14-9.41,18.48-18.63,27.62-28,.34-.35-.19-.88-.53-.53-9.14,9.4-18.48,18.62-27.62,28-.34.35.19.88.53.54Z" style="fill:#263238"></path><path d="M116.52,377.65a179.49,179.49,0,0,0-21.56,25h1.45a21.43,21.43,0,0,0,20.11-25Z" style="fill:#4E73DF"></path><path d="M78.9,359.45Q84,367.8,88.52,376.5c.22.43.87.05.65-.38q-4.52-8.69-9.62-17.05a.38.38,0,0,0-.65.38Z" style="fill:#263238"></path><path d="M70.76,331.29a98.89,98.89,0,0,0-2.6,19.52c0,6.08,1.84,12,5.3,16.09s10.43,5.87,13.24,3.53Z" style="fill:#4E73DF"></path><rect x="70.58" y="412.71" width="34.65" height="6.42" style="fill:#263238"></rect><polygon points="99.62 442.01 78.1 442.01 74.19 417.67 102.7 417.67 99.62 442.01" style="fill:#263238"></polygon><polygon points="74.45 419.26 102.5 419.26 102.15 422.01 74.89 422.01 74.45 419.26" style="opacity:0.2"></polygon></g><g id="freepik--Tab--inject-4"><path d="M134.49,149.79h18a4.07,4.07,0,0,0,4.07-4.07V133.29S141.2,143.14,134.49,149.79Z" style="opacity:0.30000000000000004"></path><rect x="74.3" y="79.61" width="78.29" height="65.83" rx="4.94" style="fill:#4E73DF"></rect><rect x="74.3" y="79.61" width="78.29" height="65.83" rx="4.94" style="fill:#fff;opacity:0.5"></rect><path d="M78.92,79.61H148a4.55,4.55,0,0,1,4.55,4.55v6.93a0,0,0,0,1,0,0H74.3a0,0,0,0,1,0,0V84.23A4.63,4.63,0,0,1,78.92,79.61Z" style="fill:#4E73DF"></path><path d="M148.16,86.19a2.51,2.51,0,1,1-2.5-2.51A2.5,2.5,0,0,1,148.16,86.19Z" style="fill:#fff;opacity:0.5"></path><path d="M141,86.19a2.51,2.51,0,1,1-2.5-2.51A2.5,2.5,0,0,1,141,86.19Z" style="fill:#fff;opacity:0.5"></path><path d="M133.92,86.19a2.51,2.51,0,1,1-2.51-2.51A2.5,2.5,0,0,1,133.92,86.19Z" style="fill:#fff;opacity:0.5"></path><path d="M112.21,118.08,119,99.43a19.74,19.74,0,0,1,6.81,4.19,20,20,0,0,1,4.6,6.53Z" style="fill:#f5f5f5"></path><path d="M112.21,118.08l5.79,19a19.85,19.85,0,1,1,.91-37.67Z" style="fill:#4E73DF"></path><path d="M112.21,118.08l18.24-7.84a19.86,19.86,0,0,1-12.38,26.81Z" style="fill:#4E73DF"></path><path d="M112.21,118.08l18.24-7.84a19.86,19.86,0,0,1-12.38,26.81Z" style="opacity:0.30000000000000004"></path></g><g id="freepik--character-2--inject-4"><path d="M388.32,184.23c-3.36.68-4.69,3.37-8.05,10.41-4.25,8.86-10.43,24.85-11.83,25-2,.19-27.16-9.63-27.16-9.63l-3.91,4.43s13.19,17.64,34.07,23.23c3.75,1,8.48-3.24,13-9.05.88-1.13,1.74-2.32,2.61-3.55a181.55,181.55,0,0,0,12.47-21.54l-11.2-19.28Z" style="fill:#4E73DF"></path><path d="M387.26,195.48a124.11,124.11,0,0,1-5.05,15.34,8.77,8.77,0,0,0-.57,4.66,68.92,68.92,0,0,0,3.15,11.94c.72,2.11,4,2,4.09,4.19.88-1.13,1.75-2.33,2.61-3.55l1.92-7.62Z" style="isolation:isolate;opacity:0.2"></path><path d="M372.62,223.07a2.21,2.21,0,0,0,1.53-2.73l-8.42-35.41A4.1,4.1,0,0,0,362,182l-27-.56a2.18,2.18,0,0,0-.88.06,2.22,2.22,0,0,0-1.52,2.74l8.42,35.4a4.1,4.1,0,0,0,3.76,2.93l27,.56A2.32,2.32,0,0,0,372.62,223.07Z" style="fill:#263238"></path><path d="M372.62,223.07a2.21,2.21,0,0,0,1.53-2.73l-8.42-35.41A4.1,4.1,0,0,0,362,182l-27-.56a2.18,2.18,0,0,0-.88.06,2.22,2.22,0,0,0-1.52,2.74l8.42,35.4a4.1,4.1,0,0,0,3.76,2.93l27,.56A2.32,2.32,0,0,0,372.62,223.07Z" style="fill:#fff;isolation:isolate;opacity:0.2"></path><path d="M369.85,223a2.21,2.21,0,0,0,1.53-2.73L363,184.88a4.12,4.12,0,0,0-3.75-2.94l-27-.55a2.13,2.13,0,0,0-.87.07,2.21,2.21,0,0,0-1.53,2.73l8.43,35.41a4.12,4.12,0,0,0,3.75,2.93l27,.55A2.08,2.08,0,0,0,369.85,223Z" style="fill:#263238"></path><path d="M369.85,223a2.21,2.21,0,0,0,1.53-2.73L363,184.88a4.12,4.12,0,0,0-3.75-2.94l-27-.55a2.13,2.13,0,0,0-.87.07,2.21,2.21,0,0,0-1.53,2.73l8.43,35.41a4.12,4.12,0,0,0,3.75,2.93l27,.55A2.08,2.08,0,0,0,369.85,223Z" style="fill:#fff;isolation:isolate;opacity:0.30000000000000004"></path><path d="M347.1,199.66a2,2,0,0,1,2.21-1.83,3.7,3.7,0,0,1,3.36,2.7,2.07,2.07,0,0,1,.07.78,2,2,0,0,1-2.21,1.81,3.71,3.71,0,0,1-3.36-2.7A1.93,1.93,0,0,1,347.1,199.66Z" style="fill:#fff;isolation:isolate;opacity:0.2"></path><path d="M336.37,203.83c.53,0,2.79,1.07,3.85.33s.07-1.35.07-1.35c-2-.47-4.08-2.91-5.27-2.21s-3.14,1.57-2.85,2.68a23.87,23.87,0,0,0,1.17,3,1.72,1.72,0,0,0-.11,1.63,2,2,0,0,0,1.43,1.19,1.81,1.81,0,0,0-.53,1.41c.08.84,2.3,2,2.3,2s-.43,1.32.07,1.83a3.55,3.55,0,0,0,3.1.7c1.3-.31,2.18-.75,2.09-2.05s-2.42-1.31-2.42-1.31,4.38-1.33,3.45-2.16-4.42-.73-4.42-.73,5.93-1.17,5-2.39-6.85-.88-6.85-.88S335.84,203.87,336.37,203.83Z" style="fill:#e9b376"></path><polygon points="386.79 413.88 389.32 435.36 381.61 436.43 373.5 416.24 386.79 413.88" style="fill:#e9b376"></polygon><path d="M375.49,431.17c-.12-1.31,0-2.41,1.51-2.48l2.17-.12a3.85,3.85,0,0,1,2.06.93c5,3.17,7-.93,9-.93,2.48,0,.88,7.28,1,7.66l2.71,8.45c.24.71-.24,2.23-1.06,2.43a1.73,1.73,0,0,1-.45.05H363.63c-4.57,0-4.62-5.13-2.74-5.5,8.47-1.6,11.81-4.14,14.6-6A31.43,31.43,0,0,0,375.49,431.17Z" style="fill:#4E73DF"></path><path d="M363.63,447.16h28.76a1.73,1.73,0,0,0,.45-.05c.56-.14,1-.88,1.08-1.57l0-.64H360A3.61,3.61,0,0,0,363.63,447.16Z" style="fill:#fff;opacity:0.4"></path><path d="M371,438.77a7.41,7.41,0,0,1,1,1,1.47,1.47,0,0,0,.1.13s0,0,0,0l.05.07c.07.1.14.19.2.29a5.58,5.58,0,0,1,.35.58.38.38,0,1,0,.65-.38,7.5,7.5,0,0,0-1.8-2.2.37.37,0,0,0-.53.53Z" style="fill:#263238"></path><path d="M373.65,437.3a7.65,7.65,0,0,1,.89.91l.1.12,0,.05,0,0,.18.25c.13.18.24.36.35.54a.38.38,0,0,0,.51.14.39.39,0,0,0,.14-.52,8.32,8.32,0,0,0-1.7-2,.37.37,0,1,0-.53.53Z" style="fill:#263238"></path><path d="M375.6,436.07a4,4,0,0,1,.44.27l.11.07s-.07-.05,0,0l.06.05.19.17.17.18.08.09,0,.05,0,0,0,0a3,3,0,0,1,.27.42.37.37,0,1,0,.64-.38,3.56,3.56,0,0,0-1.59-1.55.37.37,0,0,0-.38.64Z" style="fill:#263238"></path><path d="M375.79,433.44a5.83,5.83,0,0,1,.59,0l.48.08a6.64,6.64,0,0,1,1.08.3.37.37,0,0,0,.46-.26.38.38,0,0,0-.26-.46,7,7,0,0,0-2.35-.44.38.38,0,0,0-.37.38.38.38,0,0,0,.37.37Z" style="fill:#263238"></path><g style="opacity:0.30000000000000004"><path d="M383.89,433.71a2.18,2.18,0,0,0,1.06,1.94,3.44,3.44,0,0,0,1.5.19l4.58-.12,0,0c.24-2,.89-6.84-1-6.84-1.48,0-3.05,2.78-6.16,2C383.91,431.86,383.86,433.21,383.89,433.71Z"></path></g><path d="M363,347.15c1.37-12.43,18.68-78.37,18.68-78.37l22-.53,33.86-1s2,17.67,2,40.82c0,0-1.64,98.83-3,122.36l-18.6.71C415.84,412.7,413,355,413,355c-1.28-10.45-2.43-41.29-3.34-50.1q-.57-2.93-1.12-5.87c-3.61,9.55-20.19,50.42-21.47,56.28l6.81,77.72-20-.77S361.62,359.57,363,347.15Z" style="fill:#263238"></path><path d="M393.31,271.34a20.66,20.66,0,0,1-14.21,13.29.28.28,0,1,0,.16.54,21.29,21.29,0,0,0,14.62-13.68c.11-.34-.46-.49-.57-.15Z"></path><path d="M410.18,272.27q-.58,8.33-1.18,16.66c0,.36-.6.36-.58,0l.6-8.56c-1.45,1.06-3.14-.22-3.61-1.64a13.14,13.14,0,0,1,.12-7.3c.1-.35.66-.2.57.14a14.59,14.59,0,0,0-.48,4.92,6.39,6.39,0,0,0,.55,2.58c.47.85,1.64,1.58,2.58.8a.28.28,0,0,1,.31,0l.54-7.56C409.62,271.91,410.2,271.91,410.18,272.27Z"></path><path d="M424,271.25c-.08,7.36,5.9,13.52,13.64,14.09.37,0,.37-.51,0-.54-7.43-.56-13.14-6.51-13.06-13.55a.29.29,0,0,0-.58,0Z"></path><polygon points="421.17 414.92 424.45 436.97 432.28 437.33 434.82 416.07 421.17 414.92" style="fill:#263238"></polygon><path d="M439,447.21H421.43a3.76,3.76,0,0,1,.06-2.48,9.56,9.56,0,0,1,.26-.92l0-.05c.16-.5.35-1.11.55-1.77a65.89,65.89,0,0,0,1.35-8.88s3.31-3.05,6.72-1.62c3,1.25,2.53,2.84,2.53,2.84s.05,4.11,2.32,6c1.4,1.14,2.8,2,3.47,3.46a4.57,4.57,0,0,1,.29.86.52.52,0,0,1,0,.11A6,6,0,0,1,439,447.21Z" style="fill:#4E73DF"></path><path d="M421.49,444.73a3.76,3.76,0,0,0-.06,2.48H439a6,6,0,0,0,.07-2.48Z" style="fill:#fff;opacity:0.4"></path><path d="M432,437.23a2.52,2.52,0,0,0-3.16.18c-.24.22-.61-.12-.37-.33a3.08,3.08,0,0,1,3.9-.18c.26.18-.11.52-.37.33Z" style="fill:#263238"></path><path d="M432.47,438.73a2.53,2.53,0,0,0-3.17.18c-.24.22-.6-.12-.37-.33a3.08,3.08,0,0,1,3.9-.18c.26.19-.1.52-.36.33Z" style="fill:#263238"></path><path d="M433,440.11a2.52,2.52,0,0,0-3.16.18c-.24.22-.61-.12-.37-.33a3.08,3.08,0,0,1,3.9-.18c.26.19-.11.52-.37.33Z" style="fill:#263238"></path><path d="M381.82,263.64c-3.12,5.12-3.12,9.24-.15,10.29,0,0,27,4.58,54.68,1.44,6.66.37,3.4-5.8,3.4-5.8l.15-85.34c-21-4.45-46.43-.33-51.58,0Z" style="fill:#4E73DF"></path><path d="M439.81,233.85V205.63s4.14,28.93,2.06,36.1Z" style="isolation:isolate;opacity:0.2"></path><path d="M401.63,146.48s-10.21-5.75-4.15-11.91c4.78-4.86,9-4.15,15.4-3,15.67,2.85,14.76,9.38,14.76,9.38Z" style="fill:#263238"></path><path d="M421.58,179.36s-.84-6,2.68-16.43c0,0-.54-.28-.54-.29.48-1.46,1-2.8,1.46-4l0,0-14.82,8.29c.19,3.39-1.31,9.85-2.15,12.58,0,0-2,4.9,4.59,5.41C417.65,185.28,421.58,179.36,421.58,179.36Z" style="fill:#e9b376"></path><path d="M409.92,171.65l8.39-1.51c-.87,2.55-3.29,5.51-9.08,5.51A24.67,24.67,0,0,0,409.92,171.65Z" style="opacity:0.2"></path><path d="M425.61,151.62c-1.37,9.11-2,14.27-7,18.52-7.59,6.39-18.29,1.32-19.67-8-1.24-8.42,1.21-21.9,10.51-24.67A12.71,12.71,0,0,1,425.61,151.62Z" style="fill:#e9b376"></path><path d="M427.75,140.71c-11.18-10.77-22.56-4.72-26.91,1.18l19.5.23c.86,0,1.34.87,1.16,2.5,0,0-6.77,12.12,2.56,18.93,3.33-1.28,4-6.82,5.31-10.05C431.31,148.7,433.76,141.63,427.75,140.71Z" style="fill:#263238"></path><path d="M428.55,159.57a8.6,8.6,0,0,1-4.75,4.67c-2.85,1.12-3.6-2-3.09-4.82.46-2.58,1.5-5.67,4.5-5.57S429.63,157,428.55,159.57Z" style="fill:#e9b376"></path><path d="M411.46,153.35c-.08.93-.64,1.64-1.26,1.58s-1-.86-1-1.8.65-1.65,1.26-1.59S411.55,152.41,411.46,153.35Z" style="fill:#263238"></path><path d="M402.72,152.91c-.09.93-.65,1.64-1.26,1.58s-1-.86-1-1.8.64-1.65,1.26-1.59S402.8,152,402.72,152.91Z" style="fill:#263238"></path><path d="M406.1,152.22s-3.38,4.4-4.49,6.21c1.2,1.29,3.49.95,3.49.95Z" style="fill:#d58745"></path><path d="M415,148.89a.43.43,0,0,1-.43-.1,3.58,3.58,0,0,0-3-1,.45.45,0,0,1-.54-.32.44.44,0,0,1,.33-.53,4.39,4.39,0,0,1,3.85,1.19.43.43,0,0,1,0,.62A.39.39,0,0,1,415,148.89Z" style="fill:#263238"></path><path d="M408.33,163l-.46,0a.37.37,0,0,1-.33-.41.35.35,0,0,1,.4-.34,5.12,5.12,0,0,0,3.77-1.45.37.37,0,0,1,.53.05.38.38,0,0,1-.05.53A6.17,6.17,0,0,1,408.33,163Z" style="fill:#263238"></path><path d="M422.26,159.48h-.05a.25.25,0,0,1-.19-.3,4.9,4.9,0,0,1,1.11-2.23,3.17,3.17,0,0,1,1.81-1.09,1.94,1.94,0,0,1,2,.88.25.25,0,1,1-.44.24,1.43,1.43,0,0,0-1.45-.62,2.67,2.67,0,0,0-1.52.92,4.34,4.34,0,0,0-1,2A.26.26,0,0,1,422.26,159.48Z" style="opacity:0.2"></path><path d="M399.36,148.16a.41.41,0,0,1-.21-.14.44.44,0,0,1,.06-.62,4.34,4.34,0,0,1,3.89-.92.46.46,0,0,1,.29.56.44.44,0,0,1-.55.29,3.35,3.35,0,0,0-3.07.75A.41.41,0,0,1,399.36,148.16Z" style="fill:#263238"></path><path d="M430.75,149.7l-11.19.27a23.44,23.44,0,0,1,1.2-3.78H431.5A15.82,15.82,0,0,1,430.75,149.7Z" style="fill:#fff;opacity:0.30000000000000004"></path><g style="opacity:0.2"><path d="M412.68,159a4.47,4.47,0,0,1,1.17,3.27,2.93,2.93,0,0,0,.3-1.93C413.91,159.32,412.68,159,412.68,159Z"></path></g><polygon points="408.57 176.93 402.8 182.13 412.43 193.81 426.35 182.07 422.23 176.01 413.52 183.27 408.57 176.93" style="fill:#4E73DF"></polygon><polygon points="408.57 176.93 402.8 182.13 412.43 193.81 426.35 182.07 422.23 176.01 413.52 183.27 408.57 176.93" style="fill:#fff;opacity:0.8"></polygon><path d="M439.53,245.88v10s-22.19-6.48-35.26-18.17c-9.31-8.33-7.86-11.83-7.86-11.83l10.55,1Z" style="isolation:isolate;opacity:0.2"></path><path d="M432.57,208.07,434,231.65c3.93,2.51,6.54-1,7.14-4.55v-6.79Z" style="isolation:isolate;opacity:0.2"></path><path d="M432.54,209.59s7.13,18.6,5.35,19.73S407.11,225,407.11,225l-4.48,6.43c1,4.22,50,30.85,54,8.58,2.08-11.6-6-39-9.05-47.48-.85-2.38-5.15-7.47-7.57-8.21a5.41,5.41,0,0,0-2.5-.22C428.26,185.79,432.54,209.59,432.54,209.59Z" style="fill:#4E73DF"></path><path d="M402.2,232c-3.36.27-3.48-4.79-5.22-5a9.78,9.78,0,0,1-3-.76s1.11,3.05,0,2.8-4.66-.42-5.53-3.32,2.29-9.09,3-10,4.5-.6,4.5-.6-4.07-1.05-6.3-1.36-2.66-2.87.46-2.3c1.28.23,11.39.31,12.48,1.35s5.16,11.26,5.16,11.26C409.3,225,405.48,233.57,402.2,232Z" style="fill:#e9b376"></path><g style="opacity:0.30000000000000004"><path d="M396,214.87a11.51,11.51,0,0,1,3.1.2.29.29,0,0,1,.2.35.28.28,0,0,1-.3.21,11.51,11.51,0,0,0-2.93-.2C395.74,215.43,395.68,214.89,396,214.87Z"></path><path d="M390.83,217.93c-.32.17-.65-.3-.33-.46,1.89-1,3.88-.44,5.8.2.34.11.1.63-.25.52C394.37,217.62,392.51,217.08,390.83,217.93Z"></path><path d="M389.35,220.43a5.64,5.64,0,0,1,5.35-.23.28.28,0,0,1,.09.4.28.28,0,0,1-.32.12,5.1,5.1,0,0,0-4.8.18C389.36,221.09,389,220.62,389.35,220.43Z"></path><path d="M392.06,224.68a5,5,0,0,1-.34-.94c-.08-.35.45-.55.54-.2a4.05,4.05,0,0,0,1.87,2.6c.32.18.08.7-.23.52h0a4.63,4.63,0,0,1-1.49-1.36s-.07,0-.11,0a1.54,1.54,0,0,0-1.67.44c-.24.28-.68-.08-.43-.36A2.07,2.07,0,0,1,392.06,224.68Z"></path></g></g></svg>
